<?xml version="1.0" encoding="utf-8"?>
<!-- Generator: Adobe Illustrator 21.0.2, SVG Export Plug-In . SVG Version: 6.00 Build 0)  -->
<svg version="1.1" id="Layer_1" xmlns="http://www.w3.org/2000/svg" xmlns:xlink="http://www.w3.org/1999/xlink" x="0px" y="0px"
	 viewBox="0 0 31 24" style="enable-background:new 0 0 31 24;" xml:space="preserve">
<style type="text/css">
	.st0{fill:#FFFFFF;}
	.st1{clip-path:url(#SVGID_2_);fill:#E01B22;}
	.st2{fill:#E01B22;}
</style>
<rect x="4" y="5" class="st0" width="22.9" height="15"/>
<g>
	<defs>
		<rect id="SVGID_1_" x="4" y="5" width="22.9" height="15"/>
	</defs>
	<clipPath id="SVGID_2_">
		<use xlink:href="#SVGID_1_"  style="overflow:visible;"/>
	</clipPath>
	<path class="st1" d="M15.7,17.5l-0.1-2.1c0-0.3,0.1-0.3,0.3-0.3c0.2,0,2.1,0.4,2.1,0.4s-0.2-0.5-0.2-0.8c0-0.3,0.6-0.6,1.2-1.2
		c0.6-0.5,1.1-0.8,1.1-0.9c0-0.1-0.4,0-0.4-0.4c0-0.3,0.4-1.5,0.4-1.5S19.1,11,18.8,11s-0.6-0.4-0.6-0.8c0,0-1.1,1.4-1.4,1.3
		c-0.2-0.1,0.4-2.9,0.4-2.9s-0.7,0.6-0.9,0.5c-0.2-0.1-0.9-1.7-0.9-1.7s0,0,0,0s0,0,0,0s-0.7,1.6-0.9,1.7c-0.2,0.1-0.9-0.5-0.9-0.5
		s0.7,2.8,0.4,2.9c-0.2,0.1-1.4-1.3-1.4-1.3c0,0.3-0.4,0.8-0.6,0.8s-1.1-0.3-1.1-0.3s0.4,1.2,0.4,1.5c0,0.3-0.4,0.3-0.4,0.4
		c0,0.1,0.4,0.3,1.1,0.9c0.6,0.5,1.2,0.9,1.2,1.2c0,0.2-0.2,0.8-0.2,0.8s1.9-0.3,2.1-0.4s0.3,0,0.3,0.3l-0.1,2.1H15.7z"/>
</g>
<rect x="4" y="5" class="st2" width="5.8" height="15"/>
<rect x="21.1" y="5" class="st2" width="5.8" height="15"/>
</svg>
