<?xml version="1.0" encoding="utf-8"?>
<!-- Generator: Adobe Illustrator 21.0.2, SVG Export Plug-In . SVG Version: 6.00 Build 0)  -->
<svg version="1.1" id="Layer_1" xmlns="http://www.w3.org/2000/svg" xmlns:xlink="http://www.w3.org/1999/xlink" x="0px" y="0px"
	 viewBox="0 0 31 24" style="enable-background:new 0 0 31 24;" xml:space="preserve">
<style type="text/css">
	.st0{clip-path:url(#SVGID_2_);fill:none;stroke:#6D6E70;stroke-linecap:round;stroke-linejoin:round;}
	.st1{clip-path:url(#SVGID_2_);fill:none;stroke:#6D6E70;stroke-linecap:round;}
</style>
<g>
	<defs>
		<rect id="SVGID_1_" x="2" y="2.5" width="21.6" height="18.5"/>
	</defs>
	<clipPath id="SVGID_2_">
		<use xlink:href="#SVGID_1_"  style="overflow:visible;"/>
	</clipPath>
	<path class="st0" d="M4.8,4.1L7,17c0,0,0,1.1,1,1.1h14.4"/>
	<path class="st1" d="M17,18.1c-0.1,0.2-0.1,0.3-0.1,0.5c0,1,0.9,1.9,2,1.9c1.1,0,2-0.8,2-1.9c0-0.2,0-0.4-0.1-0.5"/>
	<path class="st1" d="M9.8,18.1c0,0.2-0.1,0.3-0.1,0.5c0,1,0.9,1.9,2,1.9c1.1,0,2-0.8,2-1.9c0-0.2,0-0.4-0.1-0.5"/>
	<path class="st1" d="M2.5,3h1c0,0,1,0,1.1,0.8"/>
	<path class="st1" d="M6.8,15.9l15.3-2.6c0,0,1-0.2,1-1.2V6.7c0,0,0-1-1-1h-17"/>
</g>
</svg>
