<?xml version="1.0" encoding="UTF-8"?>
<!-- Generator: Adobe Illustrator 19.1.0, SVG Export Plug-In . SVG Version: 6.00 Build 0)  -->
<svg version="1.1" id="Layer_1" xmlns="http://www.w3.org/2000/svg" xmlns:xlink="http://www.w3.org/1999/xlink" x="0px" y="0px" viewBox="0 0 85 42" style="enable-background:new 0 0 85 42;" xml:space="preserve">
<style type="text/css">
	.st0{fill:#FFFFFF;}
	.st1{clip-path:url(#SVGID_2_);fill:#FFFFFF;}
</style>
<path class="st0" d="M78,38.6v0.6h1.1V42h0.6v-2.8h1.1v-0.6H78z M84.3,38.6l-1.1,1.6l-1-1.6h-0.7V42h0.6v-2.4l1.1,1.7h0.1l1.1-1.7  V42h0.6v-3.4H84.3z"/>
<g>
	<defs>
		<rect id="SVGID_1_" x="0" y="0.3" width="84.9" height="41.4"/>
	</defs>
	<clipPath id="SVGID_2_">
		<use xlink:href="#SVGID_1_" style="overflow:visible;"/>
	</clipPath>
	<path class="st1" d="M12.3,19.9c0.1-0.2,0.1-0.4,0.1-0.6c0-0.3-0.1-0.6-0.2-0.8c-0.1-0.2-0.2-0.3-0.4-0.4c0,0-0.1,0-0.2-0.1   c-0.1,0-0.1,0-0.2-0.1c-0.1,0-0.2,0-0.3,0c-0.1,0-0.3,0-0.5,0H9.4v2.8h1.6c0.2,0,0.4,0,0.6-0.1c0.2-0.1,0.3-0.1,0.4-0.3   C12.2,20.2,12.3,20.1,12.3,19.9 M46.9,22.6c0.2-0.4,0.3-0.9,0.3-1.4c0-0.5-0.1-0.9-0.3-1.4c-0.2-0.4-0.4-0.8-0.7-1.1   c-0.3-0.3-0.6-0.5-1-0.7c-0.4-0.2-0.8-0.3-1.3-0.3c-0.5,0-0.9,0.1-1.3,0.3c-0.4,0.2-0.7,0.4-1,0.7c-0.3,0.3-0.5,0.7-0.7,1.1   c-0.2,0.4-0.3,0.9-0.3,1.4c0,0.5,0.1,1,0.3,1.4c0.2,0.4,0.4,0.8,0.7,1.1c0.3,0.3,0.6,0.6,1,0.7c0.8,0.4,1.8,0.4,2.5,0   c0.4-0.2,0.7-0.4,1-0.7C46.5,23.4,46.7,23,46.9,22.6 M57.3,19.9c0.1-0.2,0.1-0.4,0.1-0.6c0-0.3-0.1-0.6-0.2-0.8   c-0.1-0.2-0.2-0.3-0.4-0.4c0,0-0.1,0-0.2-0.1c-0.1,0-0.1,0-0.2-0.1c-0.1,0-0.2,0-0.3,0c-0.1,0-0.3,0-0.5,0h-1.2v2.8h1.6   c0.2,0,0.4,0,0.6-0.1c0.2-0.1,0.3-0.1,0.4-0.3C57.2,20.2,57.3,20.1,57.3,19.9 M67.7,21l3.3,5.6h-2.5l-2.6-4.6h-0.9v4.6h-2.2V15.9   h2.2v4.2h0.9l2.5-4.2h2.4L67.7,21z M58,22.1L58,22.1l2.5,4.5h-2.5L56,22.7h-1.5v3.9h-2.2V15.9h3.4c0.3,0,0.5,0,0.7,0   c0.2,0,0.4,0,0.5,0c0.2,0,0.3,0.1,0.4,0.1c0.1,0,0.2,0.1,0.3,0.1c0.3,0.1,0.6,0.3,0.8,0.5c0.2,0.2,0.4,0.4,0.6,0.7   c0.2,0.3,0.3,0.5,0.4,0.9c0.1,0.3,0.1,0.7,0.1,1c0,0.4,0,0.7-0.1,1c-0.1,0.3-0.2,0.6-0.4,0.9c-0.2,0.3-0.4,0.5-0.6,0.7   C58.3,21.9,58.2,22,58,22.1 M49.4,21.2c0,0.5-0.1,1-0.2,1.5c-0.1,0.5-0.3,0.9-0.5,1.3c-0.2,0.4-0.5,0.8-0.8,1.1   c-0.3,0.3-0.7,0.6-1.1,0.9c-0.4,0.2-0.8,0.4-1.3,0.6c-0.5,0.1-1,0.2-1.5,0.2c-0.5,0-1-0.1-1.5-0.2c-0.5-0.1-0.9-0.3-1.3-0.6   c-0.4-0.2-0.8-0.5-1.1-0.9c-0.3-0.3-0.6-0.7-0.9-1.1c-0.2-0.4-0.4-0.9-0.5-1.3c-0.1-0.5-0.2-1-0.2-1.5c0-0.8,0.1-1.5,0.4-2.1   c0.3-0.7,0.7-1.2,1.2-1.7c0.5-0.5,1.1-0.9,1.7-1.2c1.3-0.6,3-0.6,4.3,0c0.7,0.3,1.2,0.7,1.7,1.2c0.5,0.5,0.9,1.1,1.2,1.7   C49.2,19.7,49.4,20.4,49.4,21.2 M29.2,21.2c0,0.5,0.1,0.9,0.2,1.4c0.2,0.4,0.4,0.8,0.7,1.1c0.3,0.3,0.6,0.6,1,0.8   c0.6,0.3,1.3,0.3,1.9,0.2c0.2,0,0.4-0.1,0.5-0.1c0.2-0.1,0.3-0.1,0.5-0.2c0.1-0.1,0.3-0.1,0.4-0.2c0.3-0.2,0.5-0.4,0.8-0.6l0.3-0.3   l1.2,1.6l-0.2,0.2c-0.3,0.3-0.7,0.6-1.1,0.9c-0.2,0.1-0.4,0.2-0.6,0.3c-0.2,0.1-0.5,0.2-0.7,0.3c-0.3,0.1-0.5,0.1-0.8,0.2   c-0.3,0-0.6,0.1-0.9,0.1c-0.8,0-1.5-0.1-2.2-0.4c-0.7-0.3-1.2-0.7-1.7-1.2c-0.5-0.5-0.9-1.1-1.1-1.8c-0.3-0.7-0.4-1.4-0.4-2.2   c0-0.5,0.1-1,0.2-1.5c0.1-0.5,0.3-0.9,0.5-1.3c0.2-0.4,0.5-0.8,0.8-1.1c0.3-0.3,0.7-0.6,1.1-0.8c0.4-0.2,0.8-0.4,1.3-0.5   c0.7-0.2,1.6-0.2,2.4-0.1c0.3,0,0.5,0.1,0.8,0.2c0.2,0.1,0.5,0.1,0.7,0.2c0.2,0.1,0.4,0.2,0.5,0.3c0.4,0.2,0.7,0.4,1,0.7l0.2,0.2   l-1.1,1.7L35,18.8c-0.2-0.2-0.5-0.3-0.7-0.5c-0.1-0.1-0.2-0.1-0.4-0.2C33.8,18,33.7,18,33.5,18c-0.2,0-0.3-0.1-0.5-0.1   c-0.6-0.1-1.4,0-1.9,0.2c-0.4,0.2-0.7,0.4-1,0.7c-0.3,0.3-0.5,0.7-0.7,1.1C29.2,20.3,29.2,20.7,29.2,21.2 M24.7,26.6h-6.8V15.9h6.5   v2H20v2.3h3.6v2H20v2.4h4.6V26.6z M13,22.1L13,22.1l2.5,4.5H13l-2.1-3.9H9.4v3.9H7.3V15.9h3.4c0.3,0,0.5,0,0.7,0c0.2,0,0.4,0,0.5,0   c0.2,0,0.3,0.1,0.4,0.1c0.1,0,0.2,0.1,0.3,0.1c0.3,0.1,0.6,0.3,0.8,0.5c0.2,0.2,0.4,0.4,0.6,0.7c0.2,0.3,0.3,0.5,0.4,0.9   c0.1,0.3,0.1,0.7,0.1,1c0,0.4,0,0.7-0.1,1c-0.1,0.3-0.2,0.6-0.4,0.9c-0.2,0.3-0.4,0.5-0.6,0.7C13.3,21.9,13.2,22,13,22.1    M75.2,21.1c0,0,0-0.1,0-0.2C74.5,0.6,69,0.3,67.8,0.3c0,0-0.1,0-0.1,0c-1,0-61.6,3.5-61.6,3.5c-6.6,0.8-6.1,17-6.1,17v0.4   c0,0-0.5,16.2,6.1,17c0,0,60.6,3.5,61.6,3.5c0,0,0.1,0,0.1,0C69,41.7,74.5,41.4,75.2,21.1"/>
</g>
<path class="st0" d="M78.1,38.3v0.6h1.1v2.8h0.6v-2.8h1.1v-0.6H78.1z M84.3,38.3l-1.1,1.6l-1-1.6h-0.7v3.4h0.6v-2.4l1.1,1.7h0.1  l1.1-1.7v2.4H85v-3.4H84.3z"/>
</svg>