<?xml version="1.0" encoding="utf-8"?>
<!-- Generator: Adobe Illustrator 19.1.0, SVG Export Plug-In . SVG Version: 6.00 Build 0)  -->
<!DOCTYPE svg PUBLIC "-//W3C//DTD SVG 1.1//EN" "http://www.w3.org/Graphics/SVG/1.1/DTD/svg11.dtd">
<svg version="1.1" id="Layer_1" xmlns="http://www.w3.org/2000/svg" xmlns:xlink="http://www.w3.org/1999/xlink" x="0px" y="0px"
	 viewBox="0 0 52.3 18" style="enable-background:new 0 0 52.3 18;" xml:space="preserve">
<style type="text/css">
	.st0{fill:#FFFFFF;}
</style>
<g>
	<path class="st0" d="M29.9,7.2c0-0.1,0-0.1,0-0.2c0,0,0-0.1,0-0.1c-0.9,0.5-1.6,1-1.7,1.6c-0.1,0.8,0.7,1.6,2.3,2.3
		c4.5,2.1,11.6,2,16.3,0.7c2.8-0.7,4.6-1.8,5.3-3.1c0.2-0.4,0.3-0.7,0.3-1.1c0-0.3,0-0.5-0.2-0.8c-0.5-1.3-2-2.6-4.5-3.7
		c-1.7-0.7-3.9-1.4-6.5-1.9c1.8,0.6,3.2,1.3,4.1,2.1c1.2,0.9,1.5,1.8,1.5,2.5c0,0.7-0.3,1.2-0.5,1.5c-1.8,2.4-7.1,3.4-11.2,2.8
		c-0.7,0-1.5-0.3-2.2-0.5C31.1,8.9,30,8.1,29.9,7.2"/>
	<path class="st0" d="M28.5,4.2C20.7,4.1,12.9,6.1,9.7,9c-1,0.9-1.5,1.8-1.5,2.6c0,0.7,0.4,1.4,1.1,2.1c2,1.9,6.6,3.3,12.8,4
		c6.9,0.7,14.3,0.2,20.2-1.5c4.1-1.1,7.3-2.8,9.4-4.7c-3.1,1.6-6.9,2.5-11.1,2.7c-5.2,0.2-9.5-0.8-11.7-1.8c-2-0.9-3.1-1.9-3.3-3
		c-0.1-0.7,0.1-1.6,0.7-2.2c2-2.3,6.5-2.5,7.5-2.6C32.3,4.4,30.5,4.2,28.5,4.2"/>
	<path class="st0" d="M44.6,4.9c-0.3-1-2-2.1-4.5-3c-2-0.7-4.6-1.2-7.5-1.6c-2.8-0.3-5.8-0.4-9-0.3C10.5,0.4-0.1,3.8,0,8.2
		c0.1,2.1,2.6,4.1,6.6,5.4C5.4,12,5.8,10.4,6.1,9.7c1.4-3.1,8.9-6,18.1-6.9v0c1.2-0.1,2.4-0.1,3.6-0.1c6.1,0,10.9,1.1,12,2.8
		c0.1,0.2,0.4,0.5,0.5,1.1c0.1,0.3,0.1,0.9-0.6,1.5c2-0.4,3.7-1,4.5-2C44.6,5.7,44.7,5.3,44.6,4.9"/>
</g>
</svg>
