<?xml version="1.0" encoding="utf-8"?>
<!-- Generator: Adobe Illustrator 21.0.2, SVG Export Plug-In . SVG Version: 6.00 Build 0)  -->
<svg version="1.1" id="Layer_1" xmlns="http://www.w3.org/2000/svg" xmlns:xlink="http://www.w3.org/1999/xlink" x="0px" y="0px"
	 viewBox="0 0 55.7 15.9" style="enable-background:new 0 0 55.7 15.9;" xml:space="preserve">
<style type="text/css">
	.st0{fill:#FFFFFF;}
</style>
<g>
	<path class="st0" d="M3.5,2.8c-1.6,0-2.6,1.4-2.6,2.3v1.3c0,1.4,1.2,2.3,2.2,2.3h7.4c0.6,0,0.7,0.5,0.7,0.7v0.8c0,0.1,0,1-0.7,1
		H1.7c-0.5,0-0.8,0.3-0.8,0.8v0.2c0,0.4,0.3,0.8,0.8,0.8h9.2c1.4,0,2.3-1,2.3-2.5V9.1c0-1.4-1-2.1-2-2.1H3.8c-0.7,0-1-0.5-1-0.8V5.4
		c0-0.6,0.4-0.9,1-0.9h7.8c0.5,0,0.8-0.3,0.8-0.8V3.5c0-0.4-0.4-0.8-0.8-0.8L3.5,2.8L3.5,2.8z"/>
	<path class="st0" d="M26.2,2.8h-8.5c-1.4,0-2.6,1.1-2.6,2.5v5.2c0,1.4,1.1,2.5,2.5,2.5h8.7c1.4,0,2.5-1.1,2.5-2.5V5.2
		C28.8,3.9,27.6,2.8,26.2,2.8z M26.8,10.3c0,0.5-0.4,1-1,1h-8c-0.5,0-0.9-0.4-0.9-1V5.5c0-0.5,0.4-1,1-1h8c0.5,0,1,0.4,1,1
		L26.8,10.3L26.8,10.3z"/>
	<path class="st0" d="M44.4,2.8h-0.2V13h10.6c0.5,0,0.8-0.3,0.8-0.8V12c0-0.4-0.3-0.8-0.8-0.8c0,0-8.4,0-8.7,0c0-0.3,0-2.2,0-2.5
		c0.4,0,7.4,0,7.4,0c0.5,0,0.8-0.3,0.8-0.8V7.8c0-0.4-0.4-0.8-0.8-0.8c0,0-7.1,0-7.4,0c0-0.3,0-2.2,0-2.5c0.4,0,8.7,0,8.7,0
		c0.5,0,0.8-0.3,0.8-0.8V3.5c0-0.4-0.3-0.8-0.8-0.8L44.4,2.8L44.4,2.8z"/>
	<path class="st0" d="M31.9,2.8c-0.5,0-0.8,0.4-0.8,0.8V13h10.6c0.5,0,0.8-0.3,0.8-0.8V12c0-0.4-0.3-0.8-0.8-0.8c0,0-8.3,0-8.7,0
		c0-0.4,0-7.6,0-7.6c0-0.4-0.4-0.8-0.8-0.8H31.9z"/>
</g>
</svg>
